<?xml version="1.0" standalone="no"?>
<!DOCTYPE svg PUBLIC "-//W3C//DTD SVG 20010904//EN"
 "http://www.w3.org/TR/2001/REC-SVG-20010904/DTD/svg10.dtd">
<svg version="1.0" xmlns="http://www.w3.org/2000/svg"
 width="1024.000000pt" height="1024.000000pt" viewBox="0 0 1024.000000 1024.000000"
 preserveAspectRatio="xMidYMid meet">
<metadata>
Created by potrace 1.11, written by Peter Selinger 2001-2013
</metadata>
<g transform="translate(0.000000,1024.000000) scale(0.100000,-0.100000)"
fill="#000000" stroke="none">
<path d="M0 5120 l0 -5120 5120 0 5120 0 0 5120 0 5120 -5120 0 -5120 0 0
-5120z m5510 4190 c755 -53 1281 -241 1617 -577 259 -259 420 -615 488 -1076
38 -264 36 -671 -5 -923 -115 -710 -505 -1208 -1055 -1349 -86 -22 -90 -24
-90 -50 0 -26 5 -29 84 -51 505 -146 847 -415 1042 -821 93 -192 157 -419 196
-693 25 -178 25 -708 0 -895 -70 -514 -228 -911 -495 -1238 -82 -100 -272
-280 -369 -350 -236 -168 -523 -292 -818 -352 -251 -51 -180 -49 -1707 -52
l-1428 -4 0 4221 0 4220 1198 0 c709 0 1256 -4 1342 -10z"/>
<path d="M4450 6945 l0 -1017 458 5 c412 4 466 6 548 24 292 66 455 218 547
509 51 160 61 249 61 509 0 212 -2 252 -22 344 -70 319 -213 488 -493 580
-146 48 -199 53 -661 58 l-438 5 0 -1017z"/>
<path d="M4450 3435 l0 -1187 483 5 c439 3 490 6 572 24 427 96 640 394 696
973 14 154 6 438 -16 570 -64 366 -248 619 -530 726 -166 63 -205 67 -727 71
l-478 5 0 -1187z"/>
</g>
</svg>
